<svg xmlns="http://www.w3.org/2000/svg" fill="none" viewBox="0 0 274 60" height="60" width="274">
<path fill="#043E54" d="M256.781 27.8251L262.784 0.873446C262.866 0.628429 262.988 0.465088 263.233 0.465088H266.663C266.908 0.465088 267.072 0.628429 267.113 0.873446L272.993 27.8251C273.034 28.0701 272.911 28.2335 272.666 28.2335H269.195C268.909 28.2335 268.787 28.0701 268.746 27.8251L267.644 22.2306H262.131L261.028 27.8251C260.987 28.0701 260.865 28.2335 260.579 28.2335H257.108C256.863 28.2335 256.74 28.0701 256.781 27.8251ZM262.825 18.5554H266.949L264.989 8.2239H264.867L262.825 18.5554Z"></path>
<path fill="#043E54" d="M254.491 28.2335H243.016C242.771 28.2335 242.607 28.0701 242.607 27.8251V24.8849C242.607 24.7216 242.648 24.5991 242.689 24.4766L250.325 4.50784V4.42617H243.424C243.179 4.42617 243.016 4.26282 243.016 4.01781V0.873446C243.016 0.628429 243.179 0.465088 243.424 0.465088H254.491C254.736 0.465088 254.899 0.628429 254.899 0.873446V3.8953C254.899 4.05864 254.858 4.18115 254.817 4.30366L247.304 24.1907V24.2724H254.491C254.736 24.2724 254.899 24.4357 254.899 24.6808V27.8251C254.899 28.0701 254.736 28.2335 254.491 28.2335Z"></path>
<path fill="#043E54" d="M227.791 27.8251V0.873446C227.791 0.628429 227.954 0.465088 228.199 0.465088H239.593C239.838 0.465088 240.001 0.628429 240.001 0.873446V4.01781C240.001 4.26282 239.838 4.42617 239.593 4.42617H232.405C232.242 4.42617 232.16 4.50784 232.16 4.67118V11.9808C232.16 12.1441 232.242 12.2258 232.405 12.2258H238.613C238.858 12.2258 239.021 12.3892 239.021 12.6342V15.7785C239.021 16.0236 238.858 16.1869 238.613 16.1869H232.405C232.242 16.1869 232.16 16.2686 232.16 16.4319V24.0274C232.16 24.1907 232.242 24.2724 232.405 24.2724H239.593C239.838 24.2724 240.001 24.4357 240.001 24.6808V27.8251C240.001 28.0701 239.838 28.2335 239.593 28.2335H228.199C227.954 28.2335 227.791 28.0701 227.791 27.8251Z"></path>
<path fill="#043E54" d="M219.096 27.8251V0.873446C219.096 0.628429 219.259 0.465088 219.504 0.465088H223.057C223.302 0.465088 223.465 0.628429 223.465 0.873446V27.8251C223.465 28.0701 223.302 28.2335 223.057 28.2335H219.504C219.259 28.2335 219.096 28.0701 219.096 27.8251Z"></path>
<path fill="#043E54" d="M205.711 28.2335H202.158C201.913 28.2335 201.75 28.0701 201.75 27.8251V0.873446C201.75 0.628429 201.913 0.465088 202.158 0.465088H207.753C212.694 0.465088 215.634 2.67022 215.634 8.99978C215.634 15.166 212.694 17.5345 207.753 17.5345H206.364C206.201 17.5345 206.119 17.6161 206.119 17.7795V27.8251C206.119 28.0701 205.956 28.2335 205.711 28.2335ZM207.753 13.5734C210.244 13.5734 211.265 12.5117 211.265 8.99978C211.265 5.4879 210.244 4.42617 207.753 4.42617H206.364C206.201 4.42617 206.119 4.50784 206.119 4.67118V13.3284C206.119 13.4917 206.201 13.5734 206.364 13.5734H207.753Z"></path>
<path fill="#043E54" d="M178.979 27.8251V0.873446C178.979 0.628429 179.142 0.465088 179.387 0.465088H182.94C183.307 0.465088 183.511 0.587594 183.593 0.873446L188.207 16.5136H188.371L192.863 0.873446C192.944 0.587594 193.149 0.465088 193.516 0.465088H197.028C197.273 0.465088 197.436 0.628429 197.436 0.873446V27.8251C197.436 28.0701 197.273 28.2335 197.028 28.2335H193.884C193.639 28.2335 193.475 28.0701 193.475 27.8251V10.2657H193.23L189.637 22.884C189.555 23.129 189.392 23.2923 189.106 23.2923H187.309C187.023 23.2923 186.86 23.129 186.778 22.884L183.185 10.2657H182.94V27.8251C182.94 28.0701 182.776 28.2335 182.531 28.2335H179.387C179.142 28.2335 178.979 28.0701 178.979 27.8251Z"></path>
<path fill="#043E54" d="M170.283 27.8251V0.873446C170.283 0.628429 170.447 0.465088 170.692 0.465088H174.244C174.489 0.465088 174.653 0.628429 174.653 0.873446V27.8251C174.653 28.0701 174.489 28.2335 174.244 28.2335H170.692C170.447 28.2335 170.283 28.0701 170.283 27.8251Z"></path>
<path fill="#043E54" d="M155.09 27.8251V0.873446C155.09 0.628429 155.253 0.465088 155.498 0.465088H159.051C159.296 0.465088 159.459 0.628429 159.459 0.873446V24.0274C159.459 24.1907 159.541 24.2724 159.704 24.2724H166.891C167.136 24.2724 167.3 24.4357 167.3 24.6808V27.8251C167.3 28.0701 167.136 28.2335 166.891 28.2335H155.498C155.253 28.2335 155.09 28.0701 155.09 27.8251Z"></path>
<path fill="#043E54" d="M100.934 27.7277L106.936 0.776034C107.018 0.531017 107.141 0.367676 107.386 0.367676H110.816C111.061 0.367676 111.224 0.531017 111.265 0.776034L117.145 27.7277C117.186 27.9727 117.064 28.1361 116.819 28.1361H113.348C113.062 28.1361 112.939 27.9727 112.898 27.7277L111.796 22.1332H106.283L105.18 27.7277C105.14 27.9727 105.017 28.1361 104.731 28.1361H101.26C101.015 28.1361 100.893 27.9727 100.934 27.7277ZM106.977 18.458H111.102L109.142 8.12649H109.019L106.977 18.458Z"></path>
<path fill="#043E54" d="M84.3438 27.7277V0.776034C84.3438 0.531017 84.5071 0.367676 84.7521 0.367676H88.3048C88.5498 0.367676 88.7132 0.531017 88.7132 0.776034V11.72C88.7132 11.8834 88.7949 11.9651 88.9582 11.9651H93.6543C93.8177 11.9651 93.8993 11.8834 93.8993 11.72V0.776034C93.8993 0.531017 94.0627 0.367676 94.3077 0.367676H97.8604C98.1054 0.367676 98.2688 0.531017 98.2688 0.776034V27.7277C98.2688 27.9727 98.1054 28.1361 97.8604 28.1361H94.3077C94.0627 28.1361 93.8993 27.9727 93.8993 27.7277V16.1712C93.8993 16.0078 93.8177 15.9261 93.6543 15.9261H88.9582C88.7949 15.9261 88.7132 16.0078 88.7132 16.1712V27.7277C88.7132 27.9727 88.5498 28.1361 88.3048 28.1361H84.7521C84.5071 28.1361 84.3438 27.9727 84.3438 27.7277Z"></path>
<path fill="#043E54" d="M68.5895 24.2565C68.2219 23.1131 68.0586 21.9697 68.0586 14.2517C68.0586 6.53374 68.2219 5.39033 68.5895 4.24693C69.447 1.5926 71.4888 0 74.8782 0C78.8393 0 81.3303 2.04179 81.5753 6.65625C81.6161 6.90126 81.5344 7.10544 81.2894 7.14628L77.9817 7.71798C77.7367 7.75881 77.5325 7.63631 77.5325 7.35046C77.41 4.98198 76.5933 3.96108 75.0007 3.96108C73.7756 3.96108 73.1222 4.49194 72.7956 5.51284C72.5914 6.16621 72.5097 6.73792 72.5097 14.2517C72.5097 21.7655 72.5914 22.3372 72.7956 22.9906C73.1222 24.0115 73.7756 24.5424 75.0007 24.5424C76.5933 24.5424 77.41 23.5215 77.5325 21.153C77.5325 20.8671 77.7367 20.7446 77.9817 20.7855L81.2894 21.3572C81.5344 21.398 81.6161 21.6022 81.5753 21.8472C81.3303 26.4616 78.8393 28.5034 74.8782 28.5034C71.4888 28.5034 69.447 26.9108 68.5895 24.2565Z"></path>
<path fill="#043E54" d="M49.7285 27.7277V0.776034C49.7285 0.531017 49.8919 0.367676 50.1369 0.367676H54.4655C54.7922 0.367676 54.9555 0.490182 55.0372 0.776034L60.1825 19.9689H60.3867V0.776034C60.3867 0.531017 60.55 0.367676 60.795 0.367676H63.8169C64.0619 0.367676 64.2253 0.531017 64.2253 0.776034V27.7277C64.2253 27.9727 64.0619 28.1361 63.8169 28.1361H59.7741C59.4475 28.1361 59.2841 28.0136 59.2024 27.7277L53.8121 8.53485H53.5671V27.7277C53.5671 27.9727 53.4037 28.1361 53.1587 28.1361H50.1369C49.8919 28.1361 49.7285 27.9727 49.7285 27.7277Z"></path>
<path fill="#043E54" d="M30.8691 27.7277L36.8719 0.776034C36.9536 0.531017 37.0761 0.367676 37.3211 0.367676H40.7513C40.9964 0.367676 41.1597 0.531017 41.2005 0.776034L47.0809 27.7277C47.1217 27.9727 46.9992 28.1361 46.7542 28.1361H43.2832C42.9973 28.1361 42.8748 27.9727 42.834 27.7277L41.7314 22.1332H36.2186L35.116 27.7277C35.0752 27.9727 34.9527 28.1361 34.6668 28.1361H31.1958C30.9507 28.1361 30.8282 27.9727 30.8691 27.7277ZM36.9128 18.458H41.0372L39.0771 8.12649H38.9546L36.9128 18.458Z"></path>
<path fill="#043E54" d="M17.3496 27.7277V0.776034C17.3496 0.531017 17.513 0.367676 17.758 0.367676H21.3107C21.5557 0.367676 21.719 0.531017 21.719 0.776034V23.93C21.719 24.0933 21.8007 24.175 21.9641 24.175H29.1512C29.3962 24.175 29.5595 24.3383 29.5595 24.5833V27.7277C29.5595 27.9727 29.3962 28.1361 29.1512 28.1361H17.758C17.513 28.1361 17.3496 27.9727 17.3496 27.7277Z"></path>
<path fill="#043E54" d="M3.96108 28.1361H0.408359C0.163344 28.1361 0 27.9727 0 27.7277V0.776034C0 0.531017 0.163344 0.367676 0.408359 0.367676H6.00287C10.944 0.367676 13.8842 2.57281 13.8842 8.90237C13.8842 15.0686 10.944 17.4371 6.00287 17.4371H4.61445C4.45111 17.4371 4.36944 17.5187 4.36944 17.6821V27.7277C4.36944 27.9727 4.20609 28.1361 3.96108 28.1361ZM6.00287 13.476C8.49386 13.476 9.51476 12.4143 9.51476 8.90237C9.51476 5.39048 8.49386 4.32875 6.00287 4.32875H4.61445C4.45111 4.32875 4.36944 4.41043 4.36944 4.57377V13.231C4.36944 13.3943 4.45111 13.476 4.61445 13.476H6.00287Z"></path>
<path fill="#96DDA5" d="M137.43 17.4354L136.067 17.8039C135.994 17.8039 135.957 17.7916 135.957 17.7671C135.957 17.7179 136.006 17.5951 136.104 17.3986C136.522 16.5634 137.234 15.7774 138.24 15.0404C139.247 14.2789 140.008 13.8982 140.523 13.8982C140.769 13.8982 141.027 14.107 141.297 14.5246C141.567 14.9422 141.726 15.2861 141.775 15.5563C141.775 16.1458 141.297 17.2758 140.339 18.9462C139.406 20.6165 138.424 22.1027 137.393 23.4046C138.719 24.8784 139.64 25.6154 140.155 25.6154C140.425 25.6154 141.088 25.2715 142.144 24.5837C143.224 23.8713 143.899 23.5151 144.169 23.5151C144.464 23.5151 144.611 23.6993 144.611 24.0678C144.611 24.4363 144.513 24.817 144.317 25.21C143.531 27.1752 142.095 28.1578 140.008 28.1578C138.756 28.1578 137.405 27.1261 135.957 25.0627C134.066 27.1998 132.066 28.2683 129.954 28.2683C129.291 28.2683 128.69 27.9981 128.15 27.4577C127.609 26.9173 127.192 26.2663 126.898 25.5048C126.308 23.9818 126.014 22.6922 126.014 21.6359C126.014 19.8182 126.443 18.2584 127.303 16.9564C128.162 15.6545 129.475 14.2789 131.243 12.8296C130.826 11.5277 130.617 10.3487 130.617 9.29239C130.617 7.22899 131.268 5.49721 132.569 4.09704C133.87 2.67232 135.576 1.61605 137.688 0.928251C138.179 0.80543 138.608 0.744019 138.977 0.744019C139.369 0.744019 139.861 1.03879 140.45 1.62833C141.039 2.21788 141.383 2.78285 141.481 3.32327C141.481 5.41123 140.695 7.64658 139.124 10.0293C137.577 12.4121 135.834 14.4018 133.895 15.9984C133.968 16.416 134.165 17.0424 134.484 17.8776C134.828 18.7128 135.134 19.3269 135.404 19.7199C135.601 19.4988 135.859 19.1918 136.178 18.7988C136.914 17.939 137.332 17.4846 137.43 17.4354ZM129.328 24.031C129.328 24.424 129.389 24.6942 129.512 24.8416C129.635 24.9644 129.795 25.0258 129.991 25.0258C130.212 25.0258 130.408 24.989 130.58 24.9153C130.752 24.817 130.936 24.6819 131.133 24.51C131.329 24.338 131.501 24.1661 131.648 23.9941C131.82 23.8222 132.016 23.5888 132.237 23.294C132.483 22.9993 132.667 22.7659 132.79 22.594C133.158 22.0781 133.489 21.6237 133.784 21.2306C133.17 20.3709 132.606 19.0444 132.09 17.2512C132.066 17.3003 131.93 17.4846 131.685 17.8039C131.439 18.1233 131.28 18.3443 131.206 18.4671C131.133 18.59 130.985 18.8233 130.764 19.1672C130.568 19.4866 130.421 19.7568 130.322 19.9779C130.224 20.1744 130.089 20.4569 129.917 20.8253C129.77 21.1692 129.66 21.4886 129.586 21.7833C129.537 22.0781 129.475 22.4343 129.402 22.8519C129.353 23.2449 129.328 23.6379 129.328 24.031ZM139.013 5.82883L139.234 4.90766C139.21 4.76028 139.112 4.68659 138.94 4.68659C138.768 4.68659 138.584 4.73571 138.387 4.83397C137.062 5.42351 135.883 6.33239 134.852 7.56061C133.821 8.76426 133.305 9.85737 133.305 10.8399L133.342 11.5032C135.994 9.63629 137.896 7.75712 139.05 5.86567C139.026 5.86567 139.013 5.85339 139.013 5.82883Z"></path>
<path fill="#EA6E1D" d="M233.751 45.6933C232.47 45.6933 231.726 46.6926 231.726 47.8993C231.726 49.1062 232.47 50.1054 233.751 50.1054C235.033 50.1054 235.776 49.1062 235.776 47.8993C235.776 46.6926 235.033 45.6933 233.751 45.6933ZM233.751 52.5006C230.872 52.5006 229.033 50.2562 229.033 47.8993C229.033 45.5425 230.872 43.2986 233.751 43.2986C236.63 43.2986 238.47 45.5425 238.47 47.8993C238.47 50.2562 236.63 52.5006 233.751 52.5006Z"></path>
<path fill="#EA6E1D" d="M248.248 39.8839C248.141 39.8992 248.035 39.8376 247.913 39.7605C247.578 39.5135 247.609 39.6216 247.335 39.6059C246.742 39.6059 246.225 39.8839 245.541 40.9029C244.78 42.0453 243.852 43.7434 242.955 45.6887C244.324 45.6733 245.814 45.4726 246.879 45.2099C247.274 45.1175 247.609 45.1022 247.594 45.3029C247.563 45.6114 247.107 45.8584 246.757 46.0287C245.601 46.5842 243.731 47.2788 242.134 47.5412C240.354 51.7714 238.757 56.5572 238.362 58.8112C238.271 59.2436 238.301 60.0002 237.83 60.0002C237.464 60.0002 237.373 58.7806 237.404 58.2557C237.434 58.0854 237.45 57.9157 237.464 57.7306C237.677 55.1988 238.347 51.401 239.792 47.3408C239.7 47.2478 239.624 47.1401 239.563 47.032C239.487 46.8774 239.472 46.7076 239.487 46.5222C239.518 46.1674 239.715 45.7813 240.035 45.6114C240.172 45.5342 240.324 45.4879 240.491 45.4726C242.225 41.258 244.156 38.0467 246.498 38.0004C247.761 37.9853 248.415 38.9732 248.522 39.4052C248.582 39.7142 248.415 39.8686 248.248 39.8839Z"></path>
<path fill="#EA6E1D" d="M251.267 45.5964C251.297 45.3957 251.221 45.2413 250.963 45.2413C248.97 45.2413 245.852 50.3359 245.792 51.9414C245.806 52.0807 245.852 52.1574 245.959 52.1574C246.704 52.1574 249.016 49.1625 250.05 47.8661C250.446 47.3563 251.221 46.1213 251.267 45.5964ZM252.727 44.6852C252.955 44.7315 253.365 44.9326 253.685 45.1796C253.943 45.3804 254.126 45.5807 254.08 45.9669C254.035 46.6001 253.503 47.2792 253.244 47.8041C252.483 49.4096 251.236 52.8369 251.708 52.8369C252.392 52.8369 254.096 51.0307 255.677 48.2672C255.829 48.0048 256.088 47.8504 256.27 47.8504C256.453 47.8504 256.559 48.0358 256.392 48.4369C255.738 49.9964 252.757 54.0719 251.541 54.3656C250.491 54.6121 249.639 53.6088 249.639 52.5589C249.639 52.3272 249.655 52.096 249.67 51.8799C249.746 50.9224 250.08 49.749 250.384 48.854C249.457 50.2588 246.75 53.8249 245.122 53.8249C244.073 53.8249 243.556 52.5745 243.647 51.5089C243.936 48.4526 247.906 43.1724 250.735 43.1724C251.358 43.1724 252.453 43.9136 252.681 44.5775L252.727 44.6852Z"></path>
<path fill="#EA6E1D" d="M262.453 44.4696C262.589 44.9327 262.209 45.1952 262.149 45.2105C261.692 45.3956 261.768 44.7781 261.251 44.7781C261.099 44.8244 260.917 44.9484 260.643 44.9484C259.791 45.3341 258.483 46.878 257.586 48.2984C256.841 49.4714 256.232 50.6295 256.126 51.8798C256.08 52.3586 256.202 52.698 256.643 52.698C258.285 52.698 261.205 49.7341 262.437 48.1901C262.62 47.9433 262.848 47.8506 262.985 47.8506C263.167 47.8506 263.244 48.0204 263.137 48.2517C262.407 50.0122 258.316 54.1031 256.217 54.1031C254.863 54.1031 253.646 52.8063 253.768 51.3549C253.89 50.0889 254.544 48.6999 255.456 47.1865C256.445 45.5967 258.681 43.1883 260.521 43.1883C261.251 43.1883 262.118 43.4969 262.453 44.4696Z"></path>
<path fill="#EA6E1D" d="M265.759 42.8948C265.181 42.8948 264.648 42.5706 264.709 41.8448C264.77 41.0576 265.485 39.4058 266.565 39.4058C267.188 39.4058 267.827 39.8226 267.751 40.5174C267.69 41.2583 266.717 42.8948 265.759 42.8948ZM264.603 43.9294C265.165 43.9447 266.047 44.4386 265.971 45.3188C265.926 45.8743 265.044 46.847 264.709 47.5261C264.085 48.8692 263.401 50.583 263.295 51.6948C263.249 52.1888 263.295 52.4663 263.447 52.4663C264.344 52.4663 266.61 49.7804 267.569 48.1903C267.675 47.9896 267.766 47.8508 267.949 47.8508C268.146 47.8508 268.222 48.082 268.086 48.4373C267.523 50.0889 264.116 54.1031 262.717 54.1031C261.455 54.1031 261.013 52.8678 261.166 51.3859C261.318 49.626 262.184 47.4335 262.793 46.0288C263.082 45.3958 263.69 43.9294 264.603 43.9294Z"></path>
<path fill="#EA6E1D" d="M270.162 39.3904C270.39 38.6185 270.588 38.1708 271.211 38.1708C271.774 38.1708 272.671 38.9427 272.641 39.6065C272.595 40.5175 271.607 42.5551 271.272 43.3733C270.375 45.5195 269.63 46.909 268.869 49.1166C268.687 49.6721 268.231 51.0925 268.2 51.7872C268.185 52.1272 268.276 52.3584 268.55 52.3584C269.569 52.3584 272.124 49.1627 272.869 48.0667C272.976 47.8969 273.128 47.8349 273.219 47.8349C273.401 47.8349 273.523 48.0977 273.386 48.3755C272.611 49.95 269.386 54.0411 267.82 54.0411C266.542 54.0411 266.04 52.9454 266.192 51.3243C266.375 49.1166 268.094 45.0871 269.249 42.0459C269.569 41.1813 269.858 40.3627 270.162 39.3904Z"></path>
<path fill="#EA6E1D" d="M250.461 41.3425H252.279L254.097 42.9473H252.378L250.461 41.3425Z"></path>
<path fill="#EA6E1D" d="M254.302 42.9468H252.406L254.578 40.2411H257.457L254.302 42.9468Z"></path>
<path fill="#EA6E1D" d="M210.675 52.2366H208.149L203.412 39.5651H206.291L209.449 48.522L212.57 39.5651H215.412L210.675 52.2366Z"></path>
<path fill="#EA6E1D" d="M216.079 43.5625H218.699V52.2362H216.079V43.5625ZM217.398 42.7704L215.689 41.0357L217.398 39.3009L219.108 41.0357L217.398 42.7704Z"></path>
<path fill="#EA6E1D" d="M225.368 52.2366H223.325L219.424 43.5629H222.377L224.347 48.8047L226.371 43.5629H229.269L225.368 52.2366Z"></path>
<path fill="#EA6E1D" d="M233.751 45.6933C232.47 45.6933 231.726 46.6926 231.726 47.8993C231.726 49.1062 232.47 50.1054 233.751 50.1054C235.033 50.1054 235.776 49.1062 235.776 47.8993C235.776 46.6926 235.033 45.6933 233.751 45.6933ZM233.751 52.5006C230.872 52.5006 229.033 50.2562 229.033 47.8993C229.033 45.5425 230.872 43.2986 233.751 43.2986C236.63 43.2986 238.47 45.5425 238.47 47.8993C238.47 50.2562 236.63 52.5006 233.751 52.5006Z"></path>
<path fill="#EA6E1D" d="M248.248 39.8839C248.141 39.8992 248.035 39.8376 247.913 39.7605C247.578 39.5135 247.609 39.6216 247.335 39.6059C246.742 39.6059 246.225 39.8839 245.541 40.9029C244.78 42.0453 243.852 43.7434 242.955 45.6887C244.324 45.6733 245.814 45.4726 246.879 45.2099C247.274 45.1175 247.609 45.1022 247.594 45.3029C247.563 45.6114 247.107 45.8584 246.757 46.0287C245.601 46.5842 243.731 47.2788 242.134 47.5412C240.354 51.7714 238.757 56.5572 238.362 58.8112C238.271 59.2436 238.301 60.0002 237.83 60.0002C237.464 60.0002 237.373 58.7806 237.404 58.2557C237.434 58.0854 237.45 57.9157 237.464 57.7306C237.677 55.1988 238.347 51.401 239.792 47.3408C239.7 47.2478 239.624 47.1401 239.563 47.032C239.487 46.8774 239.472 46.7076 239.487 46.5222C239.518 46.1674 239.715 45.7813 240.035 45.6114C240.172 45.5342 240.324 45.4879 240.491 45.4726C242.225 41.258 244.156 38.0467 246.498 38.0004C247.761 37.9853 248.415 38.9732 248.522 39.4052C248.582 39.7142 248.415 39.8686 248.248 39.8839Z"></path>
<path fill="#EA6E1D" d="M251.267 45.5964C251.297 45.3957 251.221 45.2413 250.963 45.2413C248.97 45.2413 245.852 50.3359 245.792 51.9414C245.806 52.0807 245.852 52.1574 245.959 52.1574C246.704 52.1574 249.016 49.1625 250.05 47.8661C250.446 47.3563 251.221 46.1213 251.267 45.5964ZM252.727 44.6852C252.955 44.7315 253.365 44.9326 253.685 45.1796C253.943 45.3804 254.126 45.5807 254.08 45.9669C254.035 46.6001 253.503 47.2792 253.244 47.8041C252.483 49.4096 251.236 52.8369 251.708 52.8369C252.392 52.8369 254.096 51.0307 255.677 48.2672C255.829 48.0048 256.088 47.8504 256.27 47.8504C256.453 47.8504 256.559 48.0358 256.392 48.4369C255.738 49.9964 252.757 54.0719 251.541 54.3656C250.491 54.6121 249.639 53.6088 249.639 52.5589C249.639 52.3272 249.655 52.096 249.67 51.8799C249.746 50.9224 250.08 49.749 250.384 48.854C249.457 50.2588 246.75 53.8249 245.122 53.8249C244.073 53.8249 243.556 52.5745 243.647 51.5089C243.936 48.4526 247.906 43.1724 250.735 43.1724C251.358 43.1724 252.453 43.9136 252.681 44.5775L252.727 44.6852Z"></path>
<path fill="#EA6E1D" d="M262.453 44.4696C262.589 44.9327 262.209 45.1952 262.149 45.2105C261.692 45.3956 261.768 44.7781 261.251 44.7781C261.099 44.8244 260.917 44.9484 260.643 44.9484C259.791 45.3341 258.483 46.878 257.586 48.2984C256.841 49.4714 256.232 50.6295 256.126 51.8798C256.08 52.3586 256.202 52.698 256.643 52.698C258.285 52.698 261.205 49.7341 262.437 48.1901C262.62 47.9433 262.848 47.8506 262.985 47.8506C263.167 47.8506 263.244 48.0204 263.137 48.2517C262.407 50.0122 258.316 54.1031 256.217 54.1031C254.863 54.1031 253.646 52.8063 253.768 51.3549C253.89 50.0889 254.544 48.6999 255.456 47.1865C256.445 45.5967 258.681 43.1883 260.521 43.1883C261.251 43.1883 262.118 43.4969 262.453 44.4696Z"></path>
<path fill="#EA6E1D" d="M265.759 42.8948C265.181 42.8948 264.648 42.5706 264.709 41.8448C264.77 41.0576 265.485 39.4058 266.565 39.4058C267.188 39.4058 267.827 39.8226 267.751 40.5174C267.69 41.2583 266.717 42.8948 265.759 42.8948ZM264.603 43.9294C265.165 43.9447 266.047 44.4386 265.971 45.3188C265.926 45.8743 265.044 46.847 264.709 47.5261C264.085 48.8692 263.401 50.583 263.295 51.6948C263.249 52.1888 263.295 52.4663 263.447 52.4663C264.344 52.4663 266.61 49.7804 267.569 48.1903C267.675 47.9896 267.766 47.8508 267.949 47.8508C268.146 47.8508 268.222 48.082 268.086 48.4373C267.523 50.0889 264.116 54.1031 262.717 54.1031C261.455 54.1031 261.013 52.8678 261.166 51.3859C261.318 49.626 262.184 47.4335 262.793 46.0288C263.082 45.3958 263.69 43.9294 264.603 43.9294Z"></path>
<path fill="#EA6E1D" d="M270.162 39.3904C270.39 38.6185 270.588 38.1708 271.211 38.1708C271.774 38.1708 272.671 38.9427 272.641 39.6065C272.595 40.5175 271.607 42.5551 271.272 43.3733C270.375 45.5195 269.63 46.909 268.869 49.1166C268.687 49.6721 268.231 51.0925 268.2 51.7872C268.185 52.1272 268.276 52.3584 268.55 52.3584C269.569 52.3584 272.124 49.1627 272.869 48.0667C272.976 47.8969 273.128 47.8349 273.219 47.8349C273.401 47.8349 273.523 48.0977 273.386 48.3755C272.611 49.95 269.386 54.0411 267.82 54.0411C266.542 54.0411 266.04 52.9454 266.192 51.3243C266.375 49.1166 268.094 45.0871 269.249 42.0459C269.569 41.1813 269.858 40.3627 270.162 39.3904Z"></path>
<path fill="#EA6E1D" d="M250.461 41.3425H252.279L254.097 42.9473H252.378L250.461 41.3425Z"></path>
<path fill="#EA6E1D" d="M254.302 42.9468H252.406L254.578 40.2411H257.457L254.302 42.9468Z"></path>
<path fill="#EA6E1D" d="M181.5 52.6702V39.4702C181.5 39.3502 181.58 39.2702 181.7 39.2702H186.76C189.64 39.2702 191 40.7102 191 42.8902C191 44.4302 190.28 45.3102 189.42 45.7702V45.8102C190.26 46.1302 191.24 47.2102 191.24 48.8702C191.24 51.5702 189.54 52.8702 186.56 52.8702H181.7C181.58 52.8702 181.5 52.7902 181.5 52.6702ZM183.98 44.9302H186.7C187.9 44.9302 188.64 44.2102 188.64 43.1502C188.64 42.0702 187.9 41.3502 186.7 41.3502H183.98C183.9 41.3502 183.86 41.3902 183.86 41.4702V44.8102C183.86 44.8902 183.9 44.9302 183.98 44.9302ZM183.86 50.6702C183.86 50.7502 183.9 50.7902 183.98 50.7902H186.82C188.14 50.7902 188.88 50.0302 188.88 48.8902C188.88 47.7702 188.14 47.0102 186.82 47.0102H183.98C183.9 47.0102 183.86 47.0502 183.86 47.1302V50.6702ZM194.568 56.4702H193.948C193.828 56.4702 193.748 56.3902 193.748 56.2702V54.6702C193.748 54.5502 193.828 54.4702 193.948 54.4702H194.308C195.068 54.4702 195.448 54.1302 195.748 53.3302L196.028 52.5102L192.508 43.4302C192.468 43.3102 192.548 43.2302 192.668 43.2302H194.648C194.768 43.4302 194.848 43.5102 194.888 43.4302L197.068 49.7302H197.108L199.188 43.4302C199.228 43.3102 199.308 43.2302 199.428 43.2302H201.328C201.448 43.2302 201.528 43.3102 201.488 43.4302L197.808 53.4702C196.968 55.7502 196.168 56.4702 194.568 56.4702Z"></path>
</svg>
